<?xml version="1.0" standalone="no"?>
<!DOCTYPE svg PUBLIC "-//W3C//DTD SVG 20010904//EN"
 "http://www.w3.org/TR/2001/REC-SVG-20010904/DTD/svg10.dtd">
<svg version="1.0" xmlns="http://www.w3.org/2000/svg"
 width="33.000000pt" height="33.000000pt" viewBox="0 0 33.000000 33.000000"
 preserveAspectRatio="xMidYMid meet">

<g transform="translate(0.000000,33.000000) scale(0.100000,-0.100000)"
fill="#000000" stroke="none">
<path d="M58 305 c-11 -12 1 -25 23 -25 11 0 17 -4 14 -10 -3 -5 -24 -10 -45
-10 -21 0 -42 -4 -45 -10 -4 -6 6 -10 22 -10 29 0 29 0 28 -62 0 -35 4 -71 9
-80 6 -14 4 -18 -14 -18 -33 0 -13 -20 23 -22 24 -1 20 -3 -16 -7 -87 -11 -51
-26 61 -26 123 0 161 15 193 75 36 66 13 147 -51 184 -34 20 -187 36 -202 21z
m203 -46 c62 -44 60 -150 -5 -190 -38 -23 -103 -25 -134 -3 -28 19 -52 65 -52
99 0 34 24 80 52 99 32 23 104 20 139 -5z"/>
<path d="M126 219 c-34 -40 -33 -74 3 -110 56 -56 145 -22 145 56 0 79 -97
115 -148 54z m52 -6 c-2 -10 -14 -20 -28 -22 -25 -3 -25 -3 -6 18 23 26 39 27
34 4z m52 2 c7 -9 10 -18 7 -21 -10 -11 -37 5 -37 21 0 19 14 19 30 0z m-25
-44 c7 -12 -12 -24 -25 -16 -11 7 -4 25 10 25 5 0 11 -4 15 -9z m-52 -14 c3
-8 2 -20 -3 -27 -6 -10 -11 -8 -19 8 -14 27 -14 32 3 32 8 0 16 -6 19 -13z
m100 -7 c-6 -24 -19 -34 -27 -21 -9 14 4 41 19 41 8 0 11 -8 8 -20z m-43 -35
c0 -9 -9 -15 -25 -15 -18 0 -23 4 -19 15 4 8 15 15 25 15 10 0 19 -7 19 -15z"/>
</g>
</svg>
