<?xml version="1.0" standalone="no"?>
<!DOCTYPE svg PUBLIC "-//W3C//DTD SVG 20010904//EN"
 "http://www.w3.org/TR/2001/REC-SVG-20010904/DTD/svg10.dtd">
<svg version="1.0" xmlns="http://www.w3.org/2000/svg"
 width="33.000000pt" height="33.000000pt" viewBox="0 0 33.000000 33.000000"
 preserveAspectRatio="xMidYMid meet">
<metadata>
Created by potrace 1.16, written by Peter Selinger 2001-2019
</metadata>
<g transform="translate(0.000000,33.000000) scale(0.100000,-0.100000)"
fill="#000000" stroke="none">
<path d="M47 304 c-11 -11 3 -24 24 -24 11 0 17 -4 14 -10 -3 -5 -24 -10 -46
-10 -28 0 -39 -4 -39 -15 0 -10 10 -15 29 -15 29 0 29 -1 19 -36 -6 -24 -6
-45 1 -66 14 -39 14 -38 -4 -38 -30 0 -15 -29 18 -33 24 -3 21 -4 -15 -5 -35
-2 -48 -6 -48 -17 0 -22 208 -22 256 1 99 47 99 211 0 258 -34 16 -195 23
-209 10z m193 -39 c41 -21 60 -53 60 -101 0 -99 -123 -151 -189 -80 -89 94 15
240 129 181z"/>
<path d="M154 250 c-55 -23 -71 -99 -30 -147 53 -61 156 -21 156 62 0 63 -69
110 -126 85z"/>
</g>
</svg>
